<?xml version="1.0" standalone="no"?>
<!DOCTYPE svg PUBLIC "-//W3C//DTD SVG 20010904//EN"
 "http://www.w3.org/TR/2001/REC-SVG-20010904/DTD/svg10.dtd">
<svg version="1.0" xmlns="http://www.w3.org/2000/svg"
 width="740.000000pt" height="494.000000pt" viewBox="0 0 740.000000 494.000000"
 preserveAspectRatio="xMidYMid meet">

<g transform="translate(0.000000,494.000000) scale(0.100000,-0.100000)"
fill="#000000" stroke="none">
<path d="M5280 4900 l0 -40 40 0 40 0 0 -40 0 -40 40 0 c33 0 40 -3 40 -20 0
-13 7 -20 20 -20 13 0 20 -7 20 -20 0 -13 -7 -20 -20 -20 -17 0 -20 -7 -20
-40 l0 -40 40 0 40 0 0 -80 c0 -73 2 -80 20 -80 18 0 20 -7 20 -80 0 -73 2
-80 20 -80 19 0 20 -7 20 -120 l0 -120 60 0 60 0 0 -40 0 -40 -50 0 -50 0 0
-40 c0 -38 2 -40 31 -40 29 0 30 -2 27 -37 l-3 -38 -57 -3 -58 -3 0 -39 c0
-33 -3 -40 -20 -40 -18 0 -20 -7 -20 -80 l0 -80 -40 0 -40 0 0 -40 0 -40 -40
0 -40 0 0 -80 0 -80 -40 0 -40 0 0 -40 0 -40 -40 0 -40 0 0 -40 0 -40 -80 0
-80 0 0 -40 0 -40 -40 0 -40 0 0 -40 0 -40 -40 0 -40 0 0 -40 0 -40 -40 0 -40
0 0 -40 0 -40 -80 0 -80 0 0 -40 c0 -40 0 -40 -39 -40 -39 0 -40 -1 -43 -37
l-3 -38 -57 -3 c-32 -2 -58 -7 -58 -12 0 -5 26 -10 58 -12 43 -2 57 -7 57 -18
0 -11 -14 -16 -57 -18 -40 -2 -58 -7 -58 -16 0 -21 48 -26 226 -26 98 0 165
-4 169 -10 4 -6 57 -10 126 -10 78 0 118 -4 114 -10 -4 -6 19 -10 62 -10 48 0
63 3 53 10 -11 7 -6 10 20 10 27 0 31 -3 22 -12 -8 -8 -67 -15 -170 -19 -210
-9 -416 -29 -420 -40 -2 -5 -49 -9 -103 -9 -55 0 -142 -4 -192 -10 -51 -5
-131 -13 -179 -16 l-88 -6 0 -64 c0 -57 -2 -64 -20 -64 -13 0 -20 -7 -20 -20
0 -13 -7 -20 -20 -20 -13 0 -20 -7 -20 -20 0 -13 -7 -20 -20 -20 -16 0 -20 -7
-20 -30 0 -23 -4 -30 -20 -30 -11 0 -20 -4 -20 -10 0 -5 -9 -10 -20 -10 -11 0
-20 -7 -20 -15 0 -9 -9 -15 -25 -15 -18 0 -26 -7 -31 -25 -4 -18 -13 -25 -31
-25 -16 0 -27 -7 -30 -20 -3 -11 -14 -20 -24 -20 -12 0 -19 -7 -19 -18 0 -11
-9 -27 -20 -37 -20 -18 -20 -17 -20 8 0 15 -4 27 -10 27 -5 0 -10 -13 -10 -30
0 -16 -4 -30 -10 -30 -5 0 -10 -9 -10 -20 0 -13 -7 -20 -20 -20 -10 0 -24 -9
-30 -21 -7 -11 -17 -18 -25 -16 -9 4 -11 -1 -8 -14 4 -15 0 -22 -16 -26 -11
-3 -21 -11 -21 -19 0 -7 -10 -16 -22 -20 -14 -3 -39 -31 -63 -70 -78 -126
-213 -265 -324 -333 -10 -7 -1 -25 40 -80 29 -39 57 -71 61 -71 5 0 8 -6 8
-13 0 -8 9 -22 21 -33 27 -24 43 -54 30 -54 -6 0 -51 51 -100 114 l-90 113
-86 -44 c-47 -24 -117 -55 -155 -69 -147 -51 -413 -95 -582 -95 l-121 -1 29
-19 c29 -18 178 -49 235 -49 16 0 38 -8 48 -17 11 -9 27 -18 36 -19 9 -1 24
-9 34 -18 9 -8 51 -31 93 -51 74 -34 81 -35 235 -41 129 -6 174 -4 248 11 50
9 94 21 99 26 6 5 27 9 48 9 27 0 38 4 38 15 0 23 44 29 73 11 18 -13 31 -14
50 -7 14 5 54 13 89 16 34 4 77 13 93 20 47 21 283 76 360 85 39 4 93 14 120
22 28 9 96 26 153 39 56 12 102 27 102 32 0 6 17 7 40 3 22 -3 40 -3 40 2 0 9
149 31 258 39 41 3 62 9 62 17 0 17 88 26 261 26 117 0 139 2 139 15 0 24 425
22 475 -2 19 -9 35 -20 35 -25 0 -4 11 -8 25 -8 14 0 25 -4 25 -10 0 -5 18
-10 40 -10 33 0 40 -3 40 -20 0 -13 7 -20 20 -20 13 0 20 -7 20 -20 0 -13 7
-20 20 -20 13 0 20 -7 20 -20 0 -13 7 -20 20 -20 13 0 20 -7 20 -20 0 -13 7
-20 20 -20 13 0 20 -7 20 -20 0 -13 7 -20 20 -20 19 0 20 -7 20 -120 0 -113
-1 -120 -20 -120 -13 0 -20 -7 -20 -20 0 -13 -7 -20 -20 -20 -18 0 -20 -7 -20
-60 l0 -60 -40 0 -40 0 0 -100 0 -100 -40 0 c-33 0 -40 -3 -40 -20 0 -11 4
-20 9 -20 15 0 19 -49 5 -61 -8 -6 -14 -22 -14 -35 0 -17 -6 -24 -20 -24 -13
0 -20 -7 -20 -20 0 -13 -7 -20 -20 -20 -13 0 -20 -7 -20 -20 0 -13 -7 -20 -20
-20 -17 0 -20 -7 -20 -40 0 -33 -3 -40 -20 -40 -13 0 -20 -7 -20 -20 0 -13 -7
-20 -20 -20 -16 0 -20 -7 -20 -34 0 -28 -4 -35 -25 -40 -16 -4 -25 -13 -25
-26 0 -18 -7 -20 -55 -20 -30 0 -55 -4 -55 -10 0 -7 347 -10 1020 -10 l1020 0
0 2470 0 2470 -1060 0 -1060 0 0 -40z m340 -1200 c0 -22 -4 -40 -10 -40 -5 0
-10 18 -10 40 0 22 5 40 10 40 6 0 10 -18 10 -40z m-500 -640 l0 -40 -40 0
-40 0 0 40 0 40 40 0 40 0 0 -40z m-440 -321 c0 -33 -3 -40 -17 -37 -13 2 -19
14 -21 41 -3 32 0 37 17 37 18 0 21 -6 21 -41z m-1190 -944 c-7 -9 -15 -13
-17 -11 -7 7 7 26 19 26 6 0 6 -6 -2 -15z"/>
<path d="M2205 4435 c-165 -24 -349 -91 -440 -161 -40 -31 -66 -68 -40 -58 20
8 19 2 -4 -38 -10 -18 -38 -88 -62 -156 -25 -73 -49 -127 -59 -132 -10 -5 -20
-20 -24 -32 -5 -20 -71 -68 -93 -68 -4 0 -21 20 -36 45 -29 45 -62 63 -94 51
-14 -6 -13 -10 9 -34 14 -15 35 -42 48 -61 l23 -34 -22 -18 c-13 -11 -29 -19
-37 -19 -8 0 -14 -7 -14 -16 0 -13 6 -12 38 7 133 80 205 132 220 161 9 17 29
45 45 61 15 17 27 41 27 53 0 13 5 24 10 24 6 0 10 5 10 11 0 5 -4 7 -10 4
-14 -9 -12 2 18 74 15 35 30 62 34 60 4 -2 24 13 45 33 46 45 177 107 293 139
110 30 342 33 429 6 65 -20 64 -20 55 -6 -18 29 162 -36 225 -82 31 -22 53
-54 100 -149 34 -67 61 -127 61 -133 0 -12 60 -41 67 -33 5 5 -92 218 -124
273 -68 117 -222 186 -507 228 -55 8 -100 15 -100 14 -1 -1 -41 -7 -91 -14z"/>
<path d="M2783 4227 c15 -12 39 -35 53 -52 l25 -30 -15 32 c-16 32 -60 73 -80
73 -6 0 2 -10 17 -23z"/>
<path d="M3175 3963 c11 -3 27 -12 37 -20 15 -13 15 -18 1 -50 -12 -30 -12
-37 -1 -44 21 -14 28 -11 40 19 25 62 1 102 -62 101 -21 -1 -27 -3 -15 -6z"/>
<path d="M2295 3905 c-55 -5 -106 -14 -112 -18 -16 -10 -17 -69 -1 -85 7 -7
29 -12 49 -12 43 0 42 4 60 -152 6 -60 16 -108 21 -108 9 0 3 74 -17 190 -7
41 -9 79 -5 84 5 5 11 -7 14 -25 2 -19 12 -81 21 -138 12 -79 13 -107 4 -117
-7 -8 -9 -17 -6 -20 8 -9 48 6 42 16 -3 5 -1 10 5 12 12 4 -15 187 -29 201
-15 15 -14 54 1 63 6 4 25 10 42 13 24 5 33 14 40 39 8 28 6 36 -10 51 -17 15
-29 16 -119 6z m-94 -48 c-1 -12 -15 -9 -19 4 -3 6 1 10 8 8 6 -3 11 -8 11
-12z"/>
<path d="M1290 3833 c0 -5 7 -18 15 -29 13 -18 14 -18 8 4 -5 22 -23 41 -23
25z"/>
<path d="M1981 3762 l-21 -26 22 -23 c26 -28 49 -29 73 -3 10 11 14 20 8 20
-5 0 -16 11 -23 24 -19 36 -35 38 -59 8z"/>
<path d="M2594 3751 c4 -5 2 -12 -4 -16 -18 -11 9 -44 64 -80 28 -18 58 -40
66 -49 7 -9 20 -14 28 -11 14 5 -26 -72 -57 -109 -9 -11 -10 -16 -3 -12 7 4
28 32 47 61 l34 54 63 -31 c35 -18 65 -35 68 -38 11 -12 87 -42 115 -46 45 -6
63 4 67 34 2 18 9 27 21 27 10 0 22 7 27 15 5 8 10 10 10 4 0 -6 7 -11 15 -11
8 0 15 2 15 3 0 15 -360 166 -445 187 -94 24 -138 30 -131 18z"/>
<path d="M3411 3711 c-13 -8 -13 -21 -3 -85 6 -42 17 -85 24 -96 10 -16 10
-25 -5 -49 l-17 -29 54 -60 53 -59 18 59 c11 37 15 73 11 97 -8 55 -38 141
-48 141 -4 0 -8 6 -8 13 0 9 -55 77 -63 77 -1 0 -8 -4 -16 -9z"/>
<path d="M1887 3586 c-15 -16 -15 -19 -1 -41 15 -23 15 -25 -2 -31 -139 -49
-305 -154 -419 -267 l-80 -79 75 66 c41 36 80 66 87 66 7 0 13 5 13 10 0 6 7
10 16 10 9 0 -7 -20 -38 -50 -48 -45 -50 -48 -23 -40 55 16 200 31 203 20 2
-6 8 -10 13 -10 6 0 7 5 4 10 -3 6 0 10 8 10 27 0 94 44 89 59 -2 8 0 11 5 8
6 -4 15 5 21 18 7 14 18 25 27 25 17 0 51 18 73 37 8 8 28 10 55 7 32 -5 65 1
135 25 51 17 103 32 115 32 13 1 16 3 7 6 -8 2 -24 19 -35 36 -19 31 -24 32
-100 38 -44 3 -102 1 -129 -4 -48 -9 -50 -9 -76 23 -25 30 -27 31 -43 16z m-6
-101 c-18 -8 -36 -15 -40 -15 -13 1 45 29 59 29 8 0 0 -6 -19 -14z m229 -39
c0 -2 -9 -6 -20 -9 -11 -3 -18 -1 -14 4 5 9 34 13 34 5z"/>
<path d="M2400 3500 c0 -5 7 -10 15 -10 8 0 15 5 15 10 0 6 -7 10 -15 10 -8 0
-15 -4 -15 -10z"/>
<path d="M2761 3466 c8 -9 163 -66 167 -62 7 7 -125 66 -149 66 -12 0 -20 -2
-18 -4z"/>
<path d="M2385 3354 c-397 -64 -716 -348 -829 -738 -88 -305 -31 -636 152
-883 138 -185 323 -310 552 -371 81 -21 117 -25 245 -25 131 0 163 3 247 26
358 96 628 370 725 735 22 84 26 118 26 252 0 136 -3 167 -26 252 -98 367
-363 634 -725 729 -76 20 -297 34 -367 23z m261 -65 c480 -85 814 -534 755
-1014 -26 -218 -103 -392 -242 -554 -201 -235 -509 -359 -799 -322 -113 14
-231 50 -294 89 -73 46 -233 234 -271 317 -12 27 -37 81 -55 119 l-32 69 23
18 c20 15 21 19 7 19 -10 0 -18 -5 -18 -11 0 -21 -19 2 -25 33 -6 24 -3 35 11
45 17 12 17 13 -3 13 -35 0 -45 53 -15 76 16 12 15 13 -5 14 -19 0 -23 6 -23
30 0 18 6 33 15 36 22 9 18 24 -5 24 -27 0 -29 55 -2 65 16 6 16 7 -2 20 -21
16 -15 62 10 72 13 5 12 7 -2 17 -21 16 -11 78 12 69 8 -3 14 -1 14 5 0 6 -5
12 -11 14 -17 6 1 59 23 67 17 6 18 9 4 20 -20 16 -1 61 26 61 22 0 24 18 3
26 -13 5 -13 10 1 34 12 20 22 26 38 22 20 -5 20 -4 4 14 -15 18 -15 20 3 43
13 16 26 22 40 18 16 -4 18 -3 8 9 -6 7 -16 11 -22 7 -18 -11 79 109 120 149
76 73 336 228 383 228 9 0 20 3 24 7 3 4 12 8 19 9 167 35 201 38 283 23z"/>
<path d="M2421 3184 c0 -11 3 -14 6 -6 3 7 2 16 -1 19 -3 4 -6 -2 -5 -13z"/>
<path d="M2170 3131 c0 -6 4 -13 10 -16 6 -3 7 1 4 9 -7 18 -14 21 -14 7z"/>
<path d="M2835 3109 c-4 -6 -5 -12 -2 -15 2 -3 7 2 10 11 7 17 1 20 -8 4z"/>
<path d="M2096 3087 c3 -10 9 -15 12 -12 3 3 0 11 -7 18 -10 9 -11 8 -5 -6z"/>
<path d="M2452 3078 c-7 -7 -12 -21 -11 -32 0 -20 1 -20 9 2 12 28 36 38 55
22 23 -19 18 -39 -20 -86 -19 -23 -35 -47 -35 -53 0 -12 33 -13 70 -1 22 7 21
8 -13 9 l-39 1 31 42 c44 60 38 108 -14 108 -12 0 -26 -5 -33 -12z"/>
<path d="M2357 3072 c7 -5 16 -37 20 -73 6 -59 5 -63 -10 -50 -22 17 -47 7
-47 -19 0 -12 32 -125 71 -253 39 -128 72 -236 73 -241 0 -6 -8 -12 -19 -14
-38 -8 -47 -23 -40 -66 6 -42 38 -86 62 -86 19 0 16 -11 -15 -61 -57 -90 -49
-87 16 6 l33 47 23 -21 c27 -26 52 -27 65 -3 6 9 11 12 11 5 0 -6 9 -9 19 -6
11 3 72 -18 140 -47 123 -53 164 -59 178 -25 9 26 -18 47 -132 101 -66 31
-129 70 -157 96 l-48 43 20 30 c10 16 28 32 39 36 18 7 48 75 38 86 -11 11
-67 -39 -67 -60 0 -11 -12 -38 -26 -59 -27 -38 -39 -49 -31 -25 2 6 -5 19 -17
27 -12 8 -21 20 -21 25 -2 40 -18 139 -30 185 -8 30 -17 67 -20 83 -3 16 -12
27 -21 27 -13 0 -15 -7 -10 -37 8 -52 -5 -22 -42 95 -16 51 -26 95 -22 97 4 3
6 26 3 52 -8 95 -13 113 -31 113 -12 0 -13 -3 -5 -8z m143 -704 c0 -19 -18
-43 -25 -36 -9 9 4 48 16 48 5 0 9 -6 9 -12z m0 -63 c11 -13 10 -14 -4 -9 -9
3 -16 10 -16 15 0 13 6 11 20 -6z"/>
<path d="M2010 3052 c0 -5 7 -16 16 -23 14 -12 16 -11 13 5 -4 20 -29 35 -29
18z"/>
<path d="M2760 3010 c0 -5 7 -10 15 -10 11 0 15 -13 16 -52 0 -29 4 -62 8 -73
8 -19 4 107 -4 133 -5 14 -35 16 -35 2z"/>
<path d="M1940 2996 c0 -2 7 -7 16 -10 8 -3 12 -2 9 4 -6 10 -25 14 -25 6z"/>
<path d="M2120 2940 c0 -5 7 -10 15 -10 11 0 15 -13 16 -52 0 -29 4 -62 8 -73
8 -19 4 107 -4 133 -5 14 -35 16 -35 2z"/>
<path d="M1885 2930 c3 -5 8 -10 11 -10 2 0 4 5 4 10 0 6 -5 10 -11 10 -5 0
-7 -4 -4 -10z"/>
<path d="M2039 2931 c8 -5 15 -35 18 -75 3 -36 9 -66 12 -66 7 0 4 60 -5 118
-3 22 -10 32 -22 32 -13 0 -14 -2 -3 -9z"/>
<path d="M2990 2795 c-6 -8 -10 -20 -7 -27 4 -9 6 -7 6 4 1 9 11 20 23 23 16
6 26 1 39 -16 20 -26 25 -19 9 12 -13 23 -52 25 -70 4z"/>
<path d="M3029 2718 c-56 -74 -55 -68 -2 -66 43 1 44 2 11 5 l-38 4 32 40 c17
21 29 41 26 44 -2 3 -15 -10 -29 -27z"/>
<path d="M1901 2684 c-21 -15 -23 -22 -17 -72 7 -63 19 -82 50 -82 32 0 45 13
51 50 l6 35 -13 -35 c-14 -37 -46 -51 -65 -28 -6 7 -14 34 -17 60 -6 40 -4 48
15 62 29 20 56 6 62 -31 4 -26 4 -26 6 4 1 23 -5 35 -18 43 -26 13 -33 13 -60
-6z"/>
<path d="M1810 2681 c0 -5 7 -11 15 -15 11 -4 15 -21 15 -58 0 -29 4 -59 9
-67 8 -13 4 108 -4 137 -5 14 -35 17 -35 3z"/>
<path d="M3115 2489 c-4 -6 -4 -13 -1 -16 3 -4 6 -1 6 5 0 17 37 15 44 -3 3
-8 -1 -21 -8 -28 -12 -11 -11 -15 6 -26 23 -14 21 -49 -5 -65 -14 -9 -21 -7
-31 7 -7 9 -17 17 -21 17 -5 0 0 -9 10 -20 40 -45 95 9 66 64 -8 13 -10 29 -6
35 4 7 1 18 -5 26 -14 17 -46 20 -55 4z"/>
<path d="M3278 2433 c7 -3 16 -2 19 1 4 3 -2 6 -13 5 -11 0 -14 -3 -6 -6z"/>
<path d="M1782 2358 c-28 -28 -4 -98 34 -98 17 0 18 -22 2 -38 -7 -7 -8 -12
-2 -12 14 0 54 85 54 113 0 30 -18 47 -50 47 -14 0 -31 -5 -38 -12z m66 -10
c18 -18 14 -56 -7 -68 -26 -14 -50 -3 -57 26 -11 42 34 72 64 42z"/>
<path d="M3050 2120 c-16 -33 -30 -62 -30 -65 0 -3 18 -5 40 -5 25 0 40 -5 41
-12 0 -7 4 -4 9 7 4 11 4 24 -1 30 -5 5 -9 31 -9 57 0 26 -4 48 -10 48 -5 0
-23 -27 -40 -60z m38 -12 c-2 -36 -7 -44 -25 -46 -27 -4 -28 6 -6 53 22 47 35
44 31 -7z"/>
<path d="M2385 2104 c-9 -15 -12 -23 -6 -20 11 7 35 46 28 46 -3 0 -12 -12
-22 -26z"/>
<path d="M2326 2013 c-20 -32 -27 -46 -14 -31 26 30 62 88 55 88 -2 0 -21 -26
-41 -57z"/>
<path d="M1923 2048 c-5 -7 -10 -41 -11 -75 -1 -53 2 -64 19 -73 46 -25 85 26
59 75 -7 13 -10 29 -8 37 13 35 -37 65 -59 36z m42 -29 c0 -17 -6 -24 -20 -24
-23 0 -33 34 -13 46 20 13 33 5 33 -22z m13 -51 c30 -30 -4 -77 -41 -57 -20
11 -23 55 -4 62 21 9 32 8 45 -5z"/>
<path d="M1760 1939 c0 -5 5 -7 10 -4 6 3 10 8 10 11 0 2 -4 4 -10 4 -5 0 -10
-5 -10 -11z"/>
<path d="M2248 1898 c-19 -29 -43 -66 -52 -83 l-18 -30 22 28 c12 15 30 27 41
27 10 0 19 -1 19 -3 0 -2 -11 -37 -25 -77 -14 -41 -21 -70 -16 -65 8 10 51
132 51 147 0 4 -10 8 -21 8 -20 0 -21 1 -5 25 9 14 23 36 32 50 9 14 14 25 12
25 -3 0 -21 -24 -40 -52z"/>
<path d="M2860 1931 c-20 -6 -26 -14 -28 -46 -3 -32 -1 -38 9 -27 31 30 76 1
65 -43 -7 -27 -42 -35 -64 -13 -9 9 -12 9 -12 0 0 -7 12 -18 26 -24 23 -11 29
-10 45 11 36 44 19 91 -33 91 -21 0 -28 5 -28 20 0 15 7 20 24 20 14 0 28 5
31 10 7 11 2 11 -35 1z"/>
<path d="M3117 1879 c7 -7 15 -10 18 -7 3 3 -2 9 -12 12 -14 6 -15 5 -6 -5z"/>
<path d="M1805 1869 c-11 -17 0 -20 21 -4 17 13 17 14 2 15 -9 0 -20 -5 -23
-11z"/>
<path d="M2522 1755 c-27 -56 -28 -77 -3 -99 26 -23 52 -17 70 16 21 36 2 78
-34 78 -23 0 -25 2 -15 21 7 11 10 22 8 25 -2 2 -14 -17 -26 -41z m56 -27 c28
-28 0 -85 -36 -74 -30 10 -41 55 -17 73 23 16 37 17 53 1z"/>
<path d="M2940 1701 c0 -5 5 -13 10 -16 6 -3 10 -2 10 4 0 5 -4 13 -10 16 -5
3 -10 2 -10 -4z"/>
<path d="M2145 1609 c-4 -6 -5 -12 -2 -15 2 -3 7 2 10 11 7 17 1 20 -8 4z"/>
<path d="M2561 1544 c0 -11 3 -14 6 -6 3 7 2 16 -1 19 -3 4 -6 -2 -5 -13z"/>
<path d="M3051 3327 c2 -1 13 -9 24 -17 19 -14 19 -14 6 3 -7 9 -18 17 -24 17
-6 0 -8 -1 -6 -3z"/>
<path d="M3185 3230 c10 -11 20 -20 23 -20 3 0 -3 9 -13 20 -10 11 -20 20 -23
20 -3 0 3 -9 13 -20z"/>
<path d="M3603 2420 c0 -25 2 -35 4 -22 2 12 2 32 0 45 -2 12 -4 2 -4 -23z"/>
<path d="M3602 2285 c0 -16 2 -22 5 -12 2 9 2 23 0 30 -3 6 -5 -1 -5 -18z"/>
<path d="M3591 2184 c0 -11 3 -14 6 -6 3 7 2 16 -1 19 -3 4 -6 -2 -5 -13z"/>
<path d="M3571 2074 c0 -11 3 -14 6 -6 3 7 2 16 -1 19 -3 4 -6 -2 -5 -13z"/>
<path d="M3547 2001 c-4 -17 -3 -21 5 -13 5 5 8 16 6 23 -3 8 -7 3 -11 -10z"/>
<path d="M3517 1921 c-4 -17 -3 -21 5 -13 5 5 8 16 6 23 -3 8 -7 3 -11 -10z"/>
<path d="M1962 1308 c-7 -7 -12 -15 -12 -19 0 -4 -40 -89 -89 -190 -103 -214
-121 -255 -113 -263 10 -10 39 -6 68 9 29 15 26 19 -9 15 -16 -1 -17 1 -6 22
7 13 23 37 36 54 12 17 23 33 23 36 0 4 34 76 75 161 73 150 86 185 65 172 -5
-3 -10 -1 -10 4 0 14 -13 14 -28 -1z"/>
</g>
</svg>
